# xmcd
#
# Track frame offsets: 
#        150
#        24525
#        39300
#        63000
#        85725
#        101100
#        116850
#        137775
#        155325
#        179100
#        197025
#        217875
#
# Disc length: 3136 seconds
#
# Revision: 0
# Processed by: cddbd v1.5.2PL0 Copyright (c) Steve Scherf et al.
# Submitted via: ExactAudioCopyFreeDBPlugin 1.0
#
DISCID=a40c3e0c
DTITLE=James Bennett - Run with the Hunted
DYEAR=2017
DGENRE=Country
TTITLE0=Remedy
TTITLE1=Fake Feathers
TTITLE2=Giants
TTITLE3=Footprints
TTITLE4=Deal with it
TTITLE5=101 North
TTITLE6=Run with the Hunted
TTITLE7=The Inside
TTITLE8=Clear as Mud
TTITLE9=Sister (Bonus Track)
TTITLE10=Some Place Called Home (Bonus Track)
TTITLE11=Giants (Radio Edit)
EXTD=
EXTT0=
EXTT1=
EXTT2=
EXTT3=
EXTT4=
EXTT5=
EXTT6=
EXTT7=
EXTT8=
EXTT9=
EXTT10=
EXTT11=
PLAYORDER=
